<?xml version="1.0" encoding="UTF-8"?>
<svg id="_레이어_2" data-name="레이어 2" xmlns="http://www.w3.org/2000/svg" viewBox="0 0 7.05 10.78">
  <defs>
    <style>
      .cls-1 {
        fill: #fff;
        stroke-width: 0px;
      }
    </style>
  </defs>
  <g id="_레이어_1-2" data-name="레이어 1">
    <path id="_자판기아이콘" data-name="자판기아이콘" class="cls-1" d="M6.96,3.51c-.07-.07-.16-.11-.25-.11h-2.85V1.33l1.81-.68c.17-.07.26-.26.19-.43-.07-.17-.26-.26-.43-.19l-2.03.76c-.12.04-.22.17-.22.31v2.29H.33c-.1,0-.19.05-.25.11-.07.08-.09.17-.08.27l.95,6.72c.02.17.17.28.33.28h4.45c.17,0,.31-.12.33-.28l.98-6.72c.02-.09-.01-.19-.08-.26h0ZM5.46,10.11H1.58l-.86-6.04h2.46v1.98h-1.67l.51,3.55h3l.51-3.55h-1.67v-1.98h2.46l-.86,6.04h0Z"/>
  </g>
</svg>