<?xml version="1.0" encoding="UTF-8"?>
<svg id="_레이어_2" data-name="레이어 2" xmlns="http://www.w3.org/2000/svg" viewBox="0 0 8.02 10.06">
  <defs>
    <style>
      .cls-1 {
        fill: #fff;
        stroke-width: 0px;
      }

      .cls-2 {
        fill: none;
        stroke: #00a0e9;
        stroke-miterlimit: 10;
        stroke-width: .11px;
      }
    </style>
  </defs>
  <g id="_레이어_1-2" data-name="레이어 1">
    <g id="_휠체어대여소아이콘" data-name="휠체어대여소아이콘">
      <path class="cls-1" d="M2.6,2.6c0-.29.23-.52.52-.52s.52.23.52.52v.72h1.3c.29,0,.52.22.52.51,0,.29-.23.52-.52.52h-1.31v.79h1.63c.23,0,.42.15.49.35l1.05,2.35.37-.21c.25-.14.57-.06.71.19.14.25.06.57-.19.71l-.85.49c-.27.17-.63.06-.75-.23l-1.17-2.6h-1.82c-.29,0-.52-.23-.52-.52v-3.06h0Z"/>
      <path class="cls-2" d="M2.6,2.6c0-.29.23-.52.52-.52s.52.23.52.52v.72h1.3c.29,0,.52.22.52.51,0,.29-.23.52-.52.52h-1.31v.79h1.63c.23,0,.42.15.49.35l1.05,2.35.37-.21c.25-.14.57-.06.71.19.14.25.06.57-.19.71l-.85.49c-.27.17-.63.06-.75-.23l-1.17-2.6h-1.82c-.29,0-.52-.23-.52-.52v-3.06h0Z"/>
      <path class="cls-1" d="M5.61,9.08c-1.27,1.25-3.34,1.24-4.6-.02C.42,8.46.06,7.65.06,6.74c0-1.31.78-2.49,1.98-3.01v1.19c-.59.42-.94,1.09-.94,1.82,0,.62.25,1.17.65,1.58.97.97,2.6.83,3.39-.29l.47,1.05h0Z"/>
      <path class="cls-2" d="M5.61,9.08c-1.27,1.25-3.34,1.24-4.6-.02C.42,8.46.06,7.65.06,6.74c0-1.31.78-2.49,1.98-3.01v1.19c-.59.42-.94,1.09-.94,1.82,0,.62.25,1.17.65,1.58.97.97,2.6.83,3.39-.29l.47,1.05h0Z"/>
      <path class="cls-1" d="M3.12,0c.45,0,.82.37.82.82s-.37.82-.82.82-.82-.37-.82-.82.37-.82.82-.82h0Z"/>
    </g>
  </g>
</svg>