<?xml version="1.0" encoding="UTF-8"?>
<svg id="_레이어_2" data-name="레이어 2" xmlns="http://www.w3.org/2000/svg" viewBox="0 0 10.02 8.83">
  <defs>
    <style>
      .cls-1 {
        fill: none;
        stroke: #fff;
        stroke-miterlimit: 10;
        stroke-width: .13px;
      }

      .cls-2 {
        fill: #fff;
        stroke-width: 0px;
      }
    </style>
  </defs>
  <g id="_레이어_1-2" data-name="레이어 1">
    <g id="_유모차아이콘" data-name="유모차아이콘">
      <path id="_유모차대여소아이콘" data-name="유모차대여소아이콘" class="cls-2" d="M6.98,2.69h-.52V.33c0-.14.12-.26.26-.26,1.57,0,2.88,1.14,3.18,2.62h-.54c-.26-1.12-1.21-1.97-2.38-2.1v2.1h0ZM9.96,3.3c0,1.8-1.47,3.27-3.27,3.27h-2.06c-1.8,0-3.27-1.47-3.27-3.27,0-.14.12-.26.26-.26h.89v-1.38L.28,1.04c-.14-.03-.23-.18-.21-.32.03-.14.17-.23.31-.21l2.44.65c.12.02.21.14.21.26v1.59h6.66c.14.02.26.14.26.28h0ZM9.41,3.56H1.9c.14,1.38,1.31,2.48,2.73,2.48h2.08c1.42,0,2.59-1.1,2.71-2.48h0ZM4.43,7.77c0,.54-.45,1-1,1s-1-.46-1-1,.45-1,1-1c.54,0,1,.45,1,1h0ZM3.91,7.77c0-.26-.21-.47-.47-.47s-.47.21-.47.47.21.47.47.47.47-.21.47-.47h0ZM8.89,7.77c0,.54-.45,1-1,1s-1-.46-1-1,.45-1,1-1c.54,0,1,.45,1,1h0ZM8.36,7.77c0-.26-.21-.47-.47-.47s-.47.21-.47.47.21.47.47.47c.24,0,.47-.21.47-.47h0Z"/>
      <path class="cls-1" d="M6.98,2.69h-.52V.33c0-.14.12-.26.26-.26,1.57,0,2.88,1.14,3.18,2.62h-.54c-.26-1.12-1.21-1.97-2.38-2.1v2.1h0ZM9.96,3.3c0,1.8-1.47,3.27-3.27,3.27h-2.06c-1.8,0-3.27-1.47-3.27-3.27,0-.14.12-.26.26-.26h.89v-1.38L.28,1.04c-.14-.03-.23-.18-.21-.32.03-.14.17-.23.31-.21l2.44.65c.12.02.21.14.21.26v1.59h6.66c.14.02.26.14.26.28h0ZM9.41,3.56H1.9c.14,1.38,1.31,2.48,2.73,2.48h2.08c1.42,0,2.59-1.1,2.71-2.48h0ZM4.43,7.77c0,.54-.45,1-1,1s-1-.46-1-1,.45-1,1-1c.54,0,1,.45,1,1h0ZM3.91,7.77c0-.26-.21-.47-.47-.47s-.47.21-.47.47.21.47.47.47.47-.21.47-.47h0ZM8.89,7.77c0,.54-.45,1-1,1s-1-.46-1-1,.45-1,1-1c.54,0,1,.45,1,1h0ZM8.36,7.77c0-.26-.21-.47-.47-.47s-.47.21-.47.47.21.47.47.47c.24,0,.47-.21.47-.47h0Z"/>
    </g>
  </g>
</svg>