<?xml version="1.0" encoding="UTF-8"?>
<svg id="_레이어_2" data-name="레이어 2" xmlns="http://www.w3.org/2000/svg" viewBox="0 0 9.99 6.29">
  <defs>
    <style>
      .cls-1 {
        fill: none;
        stroke: #fff;
        stroke-linejoin: round;
        stroke-width: .55px;
      }
    </style>
  </defs>
  <g id="_레이어_1-2" data-name="레이어 1">
    <path id="_매표소아이콘" data-name="매표소아이콘" class="cls-1" d="M9.71,5.19c-.23,0-.41-.18-.41-.41s.18-.41.41-.41v-.82c-.23,0-.41-.18-.41-.41s.18-.41.41-.41v-.82c-.23,0-.41-.18-.41-.41s.18-.41.41-.41V.28H.28v.82c.23,0,.41.18.41.41s-.18.41-.41.41v.82c.23,0,.41.18.41.41s-.18.41-.41.41v.82c.23,0,.41.18.41.41,0,.23-.18.41-.41.41v.82h9.44v-.82h0ZM7.66,1.71v1.23M7.66.28v1.02M7.66,3.35v1.23M7.66,4.99v1.02M2.5,1.93l.16,2.43M3.14,1.93l.16,2.43M3.79,1.93l.16,2.43M4.44,1.93l.16,2.43M5.09,1.93l.16,2.43M5.74,1.93l.16,2.43"/>
  </g>
</svg>