<?xml version="1.0" encoding="UTF-8"?>
<svg id="_레이어_2" data-name="레이어 2" xmlns="http://www.w3.org/2000/svg" viewBox="0 0 5.46 10.43">
  <defs>
    <style>
      .cls-1 {
        fill: #fff;
        stroke-width: 0px;
      }
    </style>
  </defs>
  <g id="_레이어_1-2" data-name="레이어 1">
    <g id="_수유실아이콘" data-name="수유실아이콘">
      <path class="cls-1" d="M4.11,10.43H1.35c-.48,0-.88-.39-.88-.87v-5.18c0-.48.39-.87.88-.87h2.76c.48,0,.87.39.87.87v5.18c0,.48-.39.87-.87.87h0ZM1.35,4c-.21,0-.38.17-.38.38v5.18c0,.21.17.38.38.38h2.76c.21,0,.38-.17.38-.38v-5.18c0-.21-.17-.38-.38-.38H1.35Z"/>
      <path class="cls-1" d="M4.9,4H.56c-.31,0-.56-.25-.56-.56v-.32c0-.31.25-.56.56-.56h4.34c.31,0,.56.25.56.56v.32c0,.31-.25.56-.56.56h0ZM.56,3.06s-.07.03-.07.07v.32s.03.07.07.07h4.34s.07-.03.07-.07v-.32s-.03-.07-.07-.07H.56Z"/>
      <path class="cls-1" d="M4.29,2.86c-.11-.61-.58-1.1-1.18-1.26l-.19-.05v-.86c0-.11-.09-.2-.2-.2s-.2.09-.2.2v.86l-.19.05c-.61.15-1.08.64-1.2,1.26l-.49-.09c.14-.74.67-1.35,1.38-1.59v-.48c0-.38.31-.69.7-.69s.7.31.7.69v.49c.7.25,1.23.85,1.36,1.59l-.49.09h0Z"/>
      <polygon class="cls-1" points="2.27 5.4 .72 5.4 .72 4.91 2.27 4.91 2.27 5.4 2.27 5.4"/>
      <polygon class="cls-1" points="2.27 6.63 .72 6.63 .72 6.14 2.27 6.14 2.27 6.63 2.27 6.63"/>
      <polygon class="cls-1" points="2.27 7.86 .72 7.86 .72 7.36 2.27 7.36 2.27 7.86 2.27 7.86"/>
      <polygon class="cls-1" points="2.27 9.08 .72 9.08 .72 8.59 2.27 8.59 2.27 9.08 2.27 9.08"/>
    </g>
  </g>
</svg>