<?xml version="1.0" encoding="UTF-8"?>
<svg id="_레이어_2" data-name="레이어 2" xmlns="http://www.w3.org/2000/svg" viewBox="0 0 8.26 10.22">
  <defs>
    <style>
      .cls-1 {
        fill: none;
        stroke: #fff;
        stroke-miterlimit: 10;
        stroke-width: .21px;
      }

      .cls-2 {
        fill: #fff;
        stroke-width: 0px;
      }
    </style>
  </defs>
  <g id="_레이어_1-2" data-name="레이어 1">
    <g id="_화장실아이콘" data-name="화장실아이콘">
      <polygon class="cls-2" points="6.33 10.12 5.94 10.12 5.94 7.23 6.33 7.23 6.33 10.12 6.33 10.12"/>
      <polygon class="cls-1" points="6.33 10.12 5.94 10.12 5.94 7.23 6.33 7.23 6.33 10.12 6.33 10.12"/>
      <polygon class="cls-2" points="2.35 10.12 1.96 10.12 1.96 7.23 2.35 7.23 2.35 10.12 2.35 10.12"/>
      <polygon class="cls-1" points="2.35 10.12 1.96 10.12 1.96 7.23 2.35 7.23 2.35 10.12 2.35 10.12"/>
      <path class="cls-2" d="M6.31,1.47h-.34c-.28,0-.51-.23-.51-.51v-.34c0-.28.23-.51.51-.51h.34c.28,0,.51.23.51.51v.34c0,.28-.23.51-.51.51h0ZM5.96.53s-.09.04-.09.09v.34s.04.09.09.09h.34s.09-.04.09-.09v-.34s-.04-.09-.09-.09h-.34Z"/>
      <path class="cls-1" d="M6.31,1.47h-.34c-.28,0-.51-.23-.51-.51v-.34c0-.28.23-.51.51-.51h.34c.28,0,.51.23.51.51v.34c0,.28-.23.51-.51.51h0ZM5.96.53s-.09.04-.09.09v.34s.04.09.09.09h.34s.09-.04.09-.09v-.34s-.04-.09-.09-.09h-.34Z"/>
      <path class="cls-2" d="M2.33,1.47h-.34c-.28,0-.51-.23-.51-.51v-.34C1.47.34,1.7.11,1.99.11h.34c.28,0,.51.23.51.51v.34c0,.28-.23.51-.51.51h0ZM1.99.53s-.09.04-.09.09v.34s.04.09.09.09h.34s.09-.04.09-.09v-.34s-.04-.09-.09-.09h-.34Z"/>
      <path class="cls-1" d="M2.33,1.47h-.34c-.28,0-.51-.23-.51-.51v-.34C1.47.34,1.7.11,1.99.11h.34c.28,0,.51.23.51.51v.34c0,.28-.23.51-.51.51h0ZM1.99.53s-.09.04-.09.09v.34s.04.09.09.09h.34s.09-.04.09-.09v-.34s-.04-.09-.09-.09h-.34Z"/>
      <path class="cls-2" d="M2.67,7.4h-.99c-.39,0-.73-.28-.81-.66L.12,3.11c-.05-.25.01-.5.17-.69.16-.19.39-.31.64-.31h2.45c.25,0,.48.11.64.3.16.19.22.44.17.69l-.72,3.63c-.08.39-.42.67-.81.67h0ZM.94,2.54c-.12,0-.23.05-.31.15-.07.09-.11.21-.08.33l.75,3.63c.04.18.2.32.39.32h.99c.19,0,.35-.14.39-.32l.71-3.63c.02-.12,0-.24-.08-.33-.07-.09-.19-.14-.31-.14H.94Z"/>
      <path class="cls-1" d="M2.67,7.4h-.99c-.39,0-.73-.28-.81-.66L.12,3.11c-.05-.25.01-.5.17-.69.16-.19.39-.31.64-.31h2.45c.25,0,.48.11.64.3.16.19.22.44.17.69l-.72,3.63c-.08.39-.42.67-.81.67h0ZM.94,2.54c-.12,0-.23.05-.31.15-.07.09-.11.21-.08.33l.75,3.63c.04.18.2.32.39.32h.99c.19,0,.35-.14.39-.32l.71-3.63c.02-.12,0-.24-.08-.33-.07-.09-.19-.14-.31-.14H.94Z"/>
      <path class="cls-2" d="M7.32,7.4h-2.37c-.26,0-.5-.12-.66-.33-.16-.21-.21-.47-.14-.72l.99-3.63c.1-.36.43-.61.8-.61h.44c.38,0,.71.26.8.62l.95,3.63c.07.25.01.51-.15.72-.16.21-.4.32-.66.32h0ZM5.94,2.54c-.18,0-.34.12-.38.29l-.99,3.63c-.03.12,0,.25.07.35.08.1.19.16.31.16h2.37c.12,0,.24-.06.31-.16s.1-.22.07-.34l-.95-3.63c-.05-.17-.2-.3-.38-.3h-.44Z"/>
      <path class="cls-1" d="M7.32,7.4h-2.37c-.26,0-.5-.12-.66-.33-.16-.21-.21-.47-.14-.72l.99-3.63c.1-.36.43-.61.8-.61h.44c.38,0,.71.26.8.62l.95,3.63c.07.25.01.51-.15.72-.16.21-.4.32-.66.32h0ZM5.94,2.54c-.18,0-.34.12-.38.29l-.99,3.63c-.03.12,0,.25.07.35.08.1.19.16.31.16h2.37c.12,0,.24-.06.31-.16s.1-.22.07-.34l-.95-3.63c-.05-.17-.2-.3-.38-.3h-.44Z"/>
    </g>
  </g>
</svg>