<?xml version="1.0" encoding="UTF-8"?>
<svg id="_레이어_2" data-name="레이어 2" xmlns="http://www.w3.org/2000/svg" viewBox="0 0 9.42 9.03">
  <defs>
    <style>
      .cls-1 {
        fill: #fff;
        stroke-width: 0px;
      }

      .cls-2 {
        fill: none;
        stroke: #00a0e9;
        stroke-miterlimit: 10;
        stroke-width: .11px;
      }
    </style>
  </defs>
  <g id="_레이어_1-2" data-name="레이어 1">
    <g id="_기념품샵_아이콘" data-name="기념품샵 아이콘">
      <path class="cls-1" d="M8.62,1.76h-.85c.11-.24.14-.52.07-.78-.11-.41-.41-.72-.81-.85-.41-.14-.83-.05-1.15.23l-1.17,1-1.18-1C3.22.07,2.79-.02,2.39.11c-.41.13-.71.45-.81.85-.07.26-.04.54.07.78h-.86C.39,1.75.06,2.07.06,2.48v1.39c0,.38.29.69.66.72v3.65c0,.4.32.73.74.73h6.51c.41,0,.74-.32.74-.73v-3.65c.37-.04.66-.34.66-.72v-1.39c-.02-.4-.34-.72-.75-.72h0ZM6.35.9c.13-.11.29-.15.46-.09.17.05.27.18.32.34.04.15.01.29-.09.41-.08.11-.23.18-.38.18h-1.3l.99-.84h0ZM2.28,1.15c.04-.17.15-.28.32-.34.05-.02.1-.02.15-.02.11,0,.21.04.31.12l.99.84h-1.3c-.16,0-.29-.07-.38-.19s-.12-.26-.09-.41h0ZM8.63,3.87h-3.56v-1.39h3.55v1.39h.01ZM.79,2.48h3.55v1.39H.79v-1.39h0ZM1.45,4.6h2.89v3.64H1.45v-3.64h0ZM5.07,8.25v-3.64h2.89v3.64h-2.89Z"/>
      <path class="cls-2" d="M8.62,1.76h-.85c.11-.24.14-.52.07-.78-.11-.41-.41-.72-.81-.85-.41-.14-.83-.05-1.15.23l-1.17,1-1.18-1C3.22.07,2.79-.02,2.39.11c-.41.13-.71.45-.81.85-.07.26-.04.54.07.78h-.86C.39,1.75.06,2.07.06,2.48v1.39c0,.38.29.69.66.72v3.65c0,.4.32.73.74.73h6.51c.41,0,.74-.32.74-.73v-3.65c.37-.04.66-.34.66-.72v-1.39c-.02-.4-.34-.72-.75-.72h0ZM6.35.9c.13-.11.29-.15.46-.09.17.05.27.18.32.34.04.15.01.29-.09.41-.08.11-.23.18-.38.18h-1.3l.99-.84h0ZM2.28,1.15c.04-.17.15-.28.32-.34.05-.02.1-.02.15-.02.11,0,.21.04.31.12l.99.84h-1.3c-.16,0-.29-.07-.38-.19s-.12-.26-.09-.41h0ZM8.63,3.87h-3.56v-1.39h3.55v1.39h.01ZM.79,2.48h3.55v1.39H.79v-1.39h0ZM1.45,4.6h2.89v3.64H1.45v-3.64h0ZM5.07,8.25v-3.64h2.89v3.64h-2.89Z"/>
    </g>
  </g>
</svg>