<?xml version="1.0" encoding="UTF-8"?>
<svg id="_레이어_2" data-name="레이어 2" xmlns="http://www.w3.org/2000/svg" viewBox="0 0 10.06 10.64">
  <defs>
    <style>
      .cls-1 {
        fill: #fff;
        stroke-width: 0px;
      }

      .cls-2 {
        fill: none;
        stroke: #00a0e9;
        stroke-miterlimit: 10;
        stroke-width: .1px;
      }
    </style>
  </defs>
  <g id="_레이어_1-2" data-name="레이어 1">
    <g>
      <path class="cls-1" d="M2.31,2.32c0-.26.21-.46.46-.46s.46.21.46.46v.65h1.16c.25,0,.46.2.46.45,0,.26-.2.46-.46.46h-1.16v.7h1.45c.2,0,.38.13.44.31l.93,2.09.33-.19c.22-.13.5-.05.63.17.13.22.05.5-.17.63l-.75.43c-.24.15-.56.06-.67-.2l-1.04-2.32h-1.61c-.26,0-.46-.21-.46-.46v-2.73h0Z"/>
      <path class="cls-2" d="M2.31,2.32c0-.26.21-.46.46-.46s.46.21.46.46v.65h1.16c.25,0,.46.2.46.45,0,.26-.2.46-.46.46h-1.16v.7h1.45c.2,0,.38.13.44.31l.93,2.09.33-.19c.22-.13.5-.05.63.17.13.22.05.5-.17.63l-.75.43c-.24.15-.56.06-.67-.2l-1.04-2.32h-1.61c-.26,0-.46-.21-.46-.46v-2.73h0Z"/>
      <path class="cls-1" d="M5,8.08c-1.13,1.11-2.97,1.1-4.1-.02C.37,7.53.05,6.81.05,6,.05,4.83.74,3.78,1.81,3.33v1.06c-.52.37-.83.97-.83,1.62,0,.55.22,1.04.58,1.4.87.87,2.31.74,3.02-.26l.42.93h0Z"/>
      <path class="cls-2" d="M5,8.08c-1.13,1.11-2.97,1.1-4.1-.02C.37,7.53.05,6.81.05,6,.05,4.83.74,3.78,1.81,3.33v1.06c-.52.37-.83.97-.83,1.62,0,.55.22,1.04.58,1.4.87.87,2.31.74,3.02-.26l.42.93h0Z"/>
      <path class="cls-1" d="M2.78,0c.4,0,.73.33.73.73s-.33.73-.73.73-.73-.33-.73-.73.33-.73.73-.73h0Z"/>
      <path class="cls-1" d="M10.06,7.59s0-.24-.23-.15l-7.97,3.11s-.23.09.02.09h8.18v-3.04h0Z"/>
    </g>
  </g>
</svg>