<?xml version="1.0" encoding="UTF-8"?>
<svg id="_레이어_2" data-name="레이어 2" xmlns="http://www.w3.org/2000/svg" viewBox="0 0 10.57 9.2">
  <defs>
    <style>
      .cls-1 {
        fill: none;
        stroke: #fff;
        stroke-linecap: round;
        stroke-linejoin: round;
        stroke-width: .64px;
      }
    </style>
  </defs>
  <g id="_레이어_1-2" data-name="레이어 1">
    <path id="_심장제세동기아이콘" data-name="심장제세동기아이콘" class="cls-1" d="M1.56,6.05h2.07l.62-1.66,1.03,2.9,1.45-4.14.83,2.07h2.69M9.72,4.33c.2-.48.32-.99.32-1.5,0-1.38-1.12-2.51-2.5-2.51-.99,0-1.85.58-2.25,1.42-.4-.84-1.26-1.42-2.25-1.42C1.65.32.53,1.44.53,2.82c0,.87.34,1.71.84,2.47M2.6,6.78c1.28,1.27,2.68,2.1,2.68,2.1,0,0,2-1.17,3.4-2.89M.32,6.05h.83M2.8,1.49v1.66M3.63,2.32h-1.65"/>
  </g>
</svg>