<?xml version="1.0" encoding="UTF-8"?>
<svg id="_레이어_2" data-name="레이어 2" xmlns="http://www.w3.org/2000/svg" viewBox="0 0 9.5 8.23">
  <defs>
    <style>
      .cls-1 {
        fill: #fff;
        stroke-width: 0px;
      }
    </style>
  </defs>
  <g id="_레이어_1-2" data-name="레이어 1">
    <path id="_물품보관함아이콘" data-name="물품보관함아이콘" class="cls-1" d="M8.55,1.58h-1.9v-.63c0-.25-.1-.49-.28-.67-.18-.18-.42-.28-.67-.28h-1.9c-.25,0-.49.1-.67.28-.18.18-.28.42-.28.67v.63H.95c-.52,0-.95.43-.95.95v4.75c0,.52.43.95.95.95h7.6c.52,0,.95-.43.95-.95V2.53c0-.52-.43-.95-.95-.95h0ZM1.9,7.6h-.95c-.17,0-.32-.14-.32-.32V2.53c0-.17.14-.32.32-.32h.95v5.38h0ZM3.17,7.6h-.63V2.22h.63v5.38h0ZM5.7,7.6h-1.9V2.22h1.9v5.38h0ZM3.48,1.58v-.63c0-.08.03-.16.09-.22.06-.06.14-.09.22-.09h1.9c.08,0,.16.03.22.09.06.06.09.14.09.22v.63h-2.53ZM6.97,7.6h-.63V2.22h.63v5.38h0ZM8.87,7.28c0,.17-.14.32-.32.32h-.95V2.22h.95c.17,0,.32.14.32.32v4.75h0Z"/>
  </g>
</svg>