<?xml version="1.0" encoding="UTF-8"?>
<svg id="_레이어_2" data-name="레이어 2" xmlns="http://www.w3.org/2000/svg" viewBox="0 0 9.13 9.15">
  <defs>
    <style>
      .cls-1 {
        fill: #fff;
        stroke-width: 0px;
      }
    </style>
  </defs>
  <g id="_레이어_1-2" data-name="레이어 1">
    <g id="_음성안내기아이콘" data-name="음성안내기아이콘">
      <path class="cls-1" d="M8.62,6.07v-2.02C8.62,1.83,6.81,0,4.56,0S.51,1.83.51,4.05v2.02c-.32.27-.51.67-.51,1.1v.49c0,.82.65,1.46,1.46,1.46v-3.42h-.13v-1.65c0-1.79,1.44-3.23,3.23-3.23s3.23,1.45,3.23,3.23v1.65h-.13v3.42c.82,0,1.46-.65,1.46-1.46v-.49c0-.44-.19-.84-.51-1.1h0Z"/>
      <path class="cls-1" d="M6.73,6.24v2.38c0,.29.23.53.53.53v-3.44c-.3,0-.53.25-.53.53h0Z"/>
      <path class="cls-1" d="M1.86,5.71v3.42c.29,0,.53-.23.53-.53v-2.36c0-.29-.23-.53-.53-.53h0Z"/>
    </g>
  </g>
</svg>