<?xml version="1.0" encoding="UTF-8"?>
<svg id="_레이어_2" data-name="레이어 2" xmlns="http://www.w3.org/2000/svg" viewBox="0 0 2.94 10.3">
  <defs>
    <style>
      .cls-1 {
        fill: #fff;
        stroke-width: 0px;
      }

      .cls-2 {
        fill: none;
        stroke: #00a0e9;
        stroke-width: .59px;
      }
    </style>
  </defs>
  <g id="_레이어_1-2" data-name="레이어 1">
    <g id="_안내아이콘" data-name="안내아이콘">
      <path class="cls-1" d="M.49,8.99c0,.56.4,1.01.98,1.01s.98-.45.98-1.01v-4.78c0-.56-.4-1.01-.98-1.01s-.98.45-.98,1.01v4.78H.49ZM.3,1.46c0,.65.53,1.16,1.17,1.16s1.17-.51,1.17-1.16S2.11.3,1.47.3.3.81.3,1.46H.3Z"/>
      <path class="cls-2" d="M.49,8.99c0,.56.4,1.01.98,1.01s.98-.45.98-1.01v-4.78c0-.56-.4-1.01-.98-1.01s-.98.45-.98,1.01v4.78H.49ZM.3,1.46c0,.65.53,1.16,1.17,1.16s1.17-.51,1.17-1.16S2.11.3,1.47.3.3.81.3,1.46H.3Z"/>
    </g>
  </g>
</svg>