<?xml version="1.0" encoding="UTF-8"?>
<svg id="_레이어_2" data-name="레이어 2" xmlns="http://www.w3.org/2000/svg" viewBox="0 0 184.67 67.99">
  <defs>
    <style>
      .cls-1 {
        fill: #fff;
      }

      .cls-1, .cls-2, .cls-3 {
        stroke-width: 0px;
      }

      .cls-4 {
        fill: none;
        stroke: #221e1f;
        stroke-linecap: round;
        stroke-linejoin: round;
        stroke-width: 2.56px;
      }

      .cls-2 {
        fill: #221e1f;
      }

      .cls-3 {
        fill: #00b193;
      }
    </style>
  </defs>
  <g id="Layer_1" data-name="Layer 1">
    <line class="cls-4" x1="115.55" y1="2.02" x2="115.55" y2="52.21"/>
    <path class="cls-2" d="m178.56,0H6.11C2.74,0,0,2.73,0,6.11v61.88h184.67v-15.34s0-.05,0-.08V6.11c0-3.38-2.73-6.11-6.11-6.11M2.56,6.11c0-1.97,1.59-3.55,3.55-3.56h172.45c1.96,0,3.55,1.59,3.55,3.56v45.19H2.56V6.11Z"/>
    <path class="cls-2" d="m139.69,39.25v.49h1.79v1.47h-3.56v.42h3.72v.55h-4.55v-1.49h3.58v-.41h-3.58v-.54h1.77v-.49h-2.51v-.57h5.9v.57h-2.55Zm.53-1.79c.14.07.29.13.46.17.19.05.4.09.61.12.21.03.42.06.62.08-.07.07-.14.17-.22.28-.08.11-.15.21-.21.29-.17-.03-.36-.06-.56-.1-.2-.04-.4-.09-.59-.15-.22-.07-.43-.16-.61-.25-.19-.1-.33-.21-.44-.33-.1.11-.24.21-.4.3-.16.09-.34.17-.53.23-.2.07-.41.13-.63.18-.22.05-.44.09-.66.12-.06-.1-.13-.19-.21-.28-.08-.09-.16-.19-.24-.29.22-.02.44-.05.65-.08.21-.03.41-.07.59-.12.18-.05.35-.11.49-.18.14-.07.24-.15.31-.24h-1.71v-.54h4.62v.54h-1.71c.08.1.2.18.34.25m-2.19-1.65h2.48v.53h-2.48v-.53Z"/>
    <path class="cls-2" d="m145.4,38.82c.08.23.18.44.32.63.14.21.31.39.5.55.19.16.39.29.6.39-.1.09-.2.18-.29.28-.09.09-.17.18-.25.26-.13-.09-.27-.18-.4-.29-.14-.11-.27-.23-.4-.36-.11-.12-.22-.26-.33-.4-.1-.15-.2-.3-.28-.47-.08.17-.16.33-.27.49-.1.16-.22.31-.35.46-.12.13-.25.26-.39.38-.14.12-.29.24-.46.35-.08-.07-.17-.15-.29-.25-.12-.09-.23-.19-.34-.28.24-.13.46-.28.66-.45.21-.17.38-.36.54-.56.15-.21.27-.43.35-.67.08-.24.13-.5.13-.78v-.26h-1.31v-.67h3.46v.67h-1.31v.26c0,.25.04.49.12.72m-1.52-2.81h1.95v.64h-1.95v-.64Zm3.61,6.21v-3.13h-1.19v-.67h1.19v-2.52h.77v6.32h-.77Z"/>
    <path class="cls-2" d="m149.06,41.52v-.67h1.39v-1.28h.75v1.28h1.63v-1.29h.74v1.29h1.4v.67h-5.91Zm.49-2.22v-.66h.85l-.02-1.79h-.69v-.67h4.64v.67h-.71l-.02,1.79h.87v.66h-4.92Zm1.63-.66h1.67l.02-1.79h-1.73l.03,1.79Z"/>
    <path class="cls-2" d="m157.92,38.41c.07.26.17.5.29.73.15.26.33.49.55.7.22.21.46.39.73.56-.11.09-.21.18-.32.27-.1.09-.19.17-.25.24-.12-.08-.25-.18-.39-.3-.14-.12-.28-.25-.41-.4-.14-.15-.27-.31-.38-.48-.12-.17-.21-.34-.29-.52-.05.16-.12.33-.24.51-.11.18-.23.35-.37.51-.14.17-.29.33-.45.47-.16.14-.31.26-.44.36-.07-.07-.17-.15-.29-.25-.12-.09-.24-.18-.35-.25.29-.18.54-.37.77-.59.22-.22.4-.46.55-.73.13-.25.24-.52.31-.81.07-.29.11-.59.11-.92v-1.35h.8v1.39c0,.32.04.61.11.87m2.19-2.51h.77v6.32h-.77v-6.32Z"/>
    <path class="cls-2" d="m164.78,8.71h-31.39c-1.66,0-3.01,1.35-3.01,3.02v30.61c0,1.66,1.35,3,3.01,3.01h31.39c1.66,0,3.01-1.35,3.01-3.01V11.73c0-1.67-1.35-3.01-3.01-3.02m0,35.39h-31.39c-.98,0-1.77-.79-1.77-1.77v-8.13h34.94v8.13c0,.98-.79,1.77-1.77,1.77"/>
    <path class="cls-1" d="m156.29,27.26c-.6-4.34-2.49-6.61-4.24-7.68.84-.81,1.36-1.95,1.36-3.21,0-2.46-2-4.46-4.46-4.46s-4.46,2-4.46,4.46c0,1.26.53,2.39,1.36,3.21-1.75,1.08-3.64,3.34-4.24,7.69-.09.62-.14,1.2-.14,1.74s.04,1.01.13,1.47c.12.59.63,1.01,1.23,1.01h12.23c.6,0,1.12-.43,1.23-1.02.08-.45.13-.93.13-1.46s-.05-1.12-.14-1.74"/>
    <path class="cls-2" d="m59.63,17.93c-.57-1.01-1.34-1.83-2.31-2.43-.95-.59-2.03-.99-3.24-1.21-1.19-.22-2.42-.33-3.7-.33h-9.31c-.15,0-.29.06-.4.17-.11.11-.16.25-.16.4v24.85c0,.15.06.29.16.4.11.11.25.17.4.17h3.29c.15,0,.29-.06.4-.17.11-.11.17-.25.17-.4v-9.37h5.68c3.12,0,5.58-.66,7.31-2.07,1.74-1.41,2.59-3.53,2.59-6.15,0-1.51-.27-2.8-.86-3.85m-8.96,7.98h-5.75v-7.86h5.64c.78,0,1.52.05,2.21.16.66.1,1.22.29,1.7.57.45.27.81.63,1.08,1.12.25.46.4,1.1.4,1.96,0,.71-.1,1.3-.29,1.8-.18.49-.46.88-.86,1.21-.39.33-.92.59-1.6.77-.67.18-1.53.28-2.55.27"/>
    <path class="cls-2" d="m82.25,36.02c-.11-.11-.25-.17-.4-.17h-14.69v-7.3h13.17c.15,0,.29-.06.4-.17.11-.1.17-.25.17-.4v-2.96c0-.15-.06-.29-.17-.4-.11-.11-.25-.17-.4-.17h-13.17v-6.41h14.14c.15,0,.3-.06.4-.17.11-.11.17-.25.17-.4v-2.96c0-.15-.06-.29-.17-.4-.11-.11-.25-.17-.4-.17h-18c-.15,0-.29.06-.4.17-.1.11-.16.25-.16.4v24.85c0,.15.06.29.16.4.11.11.25.17.4.17h18.55c.15,0,.3-.06.4-.17.11-.11.16-.25.16-.4v-2.96c0-.15-.06-.29-.16-.4"/>
    <path class="cls-2" d="m105.47,14.13c-.11-.11-.25-.17-.4-.17h-3.16c-.15,0-.29.06-.4.17-.1.11-.16.25-.16.4v17.75l-11.94-18.06c-.11-.16-.29-.25-.48-.25h-3.39c-.15,0-.3.06-.4.17-.1.11-.17.25-.17.4v24.85c0,.15.06.29.17.4.11.11.25.17.4.17h3.12c.15,0,.29-.06.4-.17.11-.11.16-.25.16-.4v-17.72l12,18.03c.11.16.28.25.47.25h3.38c.15,0,.3-.06.4-.17.11-.11.17-.25.17-.4V14.53c0-.15-.06-.29-.17-.4"/>
    <path class="cls-3" d="m23.35,16.22c5.12,0,9.35,3.77,10.1,8.68,1.75.25,3.18.71,4.32,1.21-.01-.33-.03-.49-.03-.49h0c-.43-7.58-6.71-13.58-14.38-13.58-7.61,0-13.84,5.9-14.37,13.38.03.49.27,1.43,1.68,2.11l-.08-.02c1.42.77,3.62,1.66,6.23,1.67,1.94,0,4.52-.52,6.66-1.96,1.5-1.01,3.21-1.96,5.06-1.96.57,0,1.15.06,1.71.18.16.04.31.07.47.11,0,0,.52.29.63-.05.06-.19,0-.36-.06-.47-.18-.3-.65-.6-.94-.79-.41-.26-.87-.46-1.34-.58-1.08-.28-2.25-.2-3.33.02-1.1.22-2.17.59-3.18,1.07-1.75.83-3.58,1.14-4.7,1.14-1.82,0-2.92-.79-3.61-1.6-.25-.29-.44-.58-.58-.84,1.29-4.18,5.16-7.21,9.76-7.22"/>
    <path class="cls-2" d="m33.65,26.57c-.01.3-.03.55-.04.66h0c-.39,5.3-4.8,9.48-10.2,9.49-4.41,0-8.02-2.44-9.44-6.32-1-.22-3.38-.86-4.88-2.07,0,0,0,0,0,.01.73,7.28,6.85,12.56,14.32,12.56s13.65-5.71,14.34-13.02c-1.39-.71-2.9-1.1-4.1-1.31"/>
    <path class="cls-1" d="m24.6,58.75h-4.28v-1.8s0-.04-.02-.05c-.01-.01-.03-.02-.05-.02h-1.17s-.04,0-.05.02c-.01.01-.02.03-.02.05v1.8h-3.18s-.04,0-.05.02c-.01.01-.02.03-.02.05v1.04s0,.04.02.05c.01.01.03.02.05.02h8.77s.04,0,.05-.02c.01-.01.02-.03.02-.05v-1.04s0-.04-.02-.05c-.01-.01-.03-.02-.05-.02m-1.75,2.38c-.62-.39-1.5-.57-2.65-.57s-2.01.19-2.63.57c-.62.38-.94.89-.93,1.51,0,.61.32,1.12.94,1.5.62.39,1.5.58,2.64.58,1.15,0,2.03-.19,2.65-.58.61-.39.93-.89.93-1.5,0-.62-.32-1.12-.94-1.51m-1.04,2.26c-.4.17-.93.25-1.6.25s-1.22-.09-1.6-.25c-.38-.17-.55-.41-.56-.76,0-.32.18-.55.56-.72.39-.17.92-.26,1.6-.26s1.2.09,1.6.26c.4.18.58.41.58.72,0,.35-.18.59-.58.76m-5.04-7.45h5.67c0,.36-.04.74-.09,1.13-.06.42-.12.79-.18,1.1,0,.02,0,.04.02.06.01.02.03.03.05.03h1.12s.06-.01.07-.04c.08-.49.16-1.01.22-1.55.06-.55.1-1.16.1-1.82,0-.02,0-.04-.02-.05-.01-.01-.03-.02-.05-.02h-6.92s-.04,0-.05.02c-.01.01-.02.03-.02.05v1.04s0,.04.02.05c.01.01.03.02.05.02m9.46,0h5.67c-.01.36-.04.74-.09,1.13-.06.42-.11.79-.18,1.1,0,.02,0,.04.01.06.01.02.03.03.05.03h1.12s.06-.01.07-.04c.08-.49.16-1.01.22-1.55.06-.55.1-1.16.11-1.82,0-.02,0-.04-.02-.05-.01-.01-.03-.02-.05-.02h-6.92s-.03,0-.05.02c-.01.01-.02.03-.02.05v1.04s0,.04.02.05c.01.01.03.02.05.02m6.08,5.19c-.62-.39-1.5-.57-2.65-.57s-2.01.19-2.64.57c-.61.38-.94.89-.93,1.51,0,.61.32,1.12.94,1.5.62.39,1.5.58,2.64.58,1.15,0,2.03-.19,2.65-.58.61-.39.93-.89.93-1.5,0-.62-.32-1.12-.94-1.51m-1.04,2.26c-.4.17-.93.25-1.6.25s-1.22-.09-1.6-.25c-.38-.17-.55-.41-.56-.76,0-.32.17-.55.56-.72.39-.17.92-.26,1.6-.26s1.2.09,1.6.26c.4.18.58.41.58.72,0,.35-.18.59-.58.76m2.79-4.64h-4.28v-1.8s0-.04-.02-.05c-.01-.01-.03-.02-.05-.02h-1.17s-.03,0-.05.02c-.01.01-.02.03-.02.05v1.8h-3.18s-.03,0-.05.02c-.01.01-.02.03-.02.05v1.04s0,.04.02.05c.01.01.03.02.05.02h8.77s.04,0,.05-.02c.01-.01.02-.03.02-.05v-1.04s0-.04-.02-.05c-.01-.01-.03-.02-.05-.02m1.77.12h6.81s.04,0,.05-.02c.01-.01.02-.03.02-.05v-1.04s0-.04-.02-.05c-.01-.01-.03-.02-.05-.02h-5.63v-2.83s0-.04-.02-.05c-.01-.01-.03-.02-.05-.02h-1.12s-.03,0-.05.02c-.01.01-.02.03-.02.05v3.94s0,.04.02.05c.01.01.03.02.05.02m7.7,1.1h-8.77s-.04,0-.05.02c-.01.01-.02.03-.02.05v1.03s0,.03.02.05c.01.01.03.02.05.02h3.75v3.33s0,.03.02.05c.01.01.03.02.05.02h1.16s.04,0,.05-.02c.01-.01.02-.03.02-.05v-3.33h3.73s.03,0,.05-.02c.01-.01.02-.03.02-.05v-1.03s0-.04-.02-.05c-.01-.01-.03-.02-.05-.02m7.08.79c-.31.05-.77.12-1.4.19-.63.07-1.18.11-1.65.11h-1.39v-1.88h3.2s.03,0,.05-.02c.01-.01.02-.03.02-.05v-4.02s0-.04-.02-.05c-.01-.01-.03-.02-.05-.02h-4.39s-.04,0-.05.02c-.01.01-.02.03-.02.05v1.04s0,.04.02.05c.01.01.03.02.05.02h3.2v1.82h-3.2s-.04,0-.05.02c-.01.01-.02.03-.02.05v4.1s0,.04.02.05c.01.01.03.02.05.02,0,0,.35,0,1.02-.01.67,0,1.09-.01,1.25-.01.62-.01,1.26-.06,1.92-.13.65-.07,1.14-.13,1.47-.18.03,0,.06-.03.06-.07v-1.03s-.01-.04-.02-.05c-.02-.01-.04-.02-.06-.02m1.65-6.22s-.03-.02-.05-.02h-1.14s-.03,0-.05.02c-.01.01-.02.03-.02.05v9.88s0,.03.02.05c.01.01.03.02.05.02h1.14s.03,0,.05-.02c.01-.01.02-.03.02-.05v-9.88s0-.04-.02-.05"/>
    <path class="cls-1" d="m60.84,59.55v-.7h3.4v-1.86h.9v1.86h4.52v.7h-8.82Zm1.84,3.83c-.6-.34-.9-.76-.9-1.26s.3-.93.9-1.26c.6-.34,1.45-.5,2.56-.5s1.97.17,2.57.5c.6.33.89.75.89,1.26s-.3.92-.89,1.26c-.6.34-1.45.51-2.57.51s-1.96-.17-2.56-.51m5.98-8.22c0,.56-.05,1.1-.13,1.63-.08.53-.16,1-.26,1.41h-.85c.08-.32.15-.69.21-1.13.07-.44.1-.84.11-1.21h-5.87v-.7h6.8Zm-5.23,7.78c.46.19,1.06.28,1.81.28s1.34-.09,1.81-.28c.46-.19.69-.47.69-.84,0-.35-.23-.62-.69-.81-.46-.18-1.07-.28-1.81-.28s-1.35.09-1.81.28c-.46.18-.69.45-.69.81,0,.37.23.65.69.84"/>
    <path class="cls-1" d="m70.36,59.55v-.7h3.4v-1.86h.9v1.86h4.52v.7h-8.82Zm1.85,3.83c-.6-.34-.9-.76-.9-1.26s.3-.93.9-1.26c.6-.34,1.45-.5,2.56-.5s1.97.17,2.57.5c.6.33.89.75.89,1.26s-.3.92-.89,1.26c-.6.34-1.45.51-2.57.51s-1.96-.17-2.56-.51m5.98-8.22c0,.56-.05,1.1-.13,1.63-.08.53-.17,1-.27,1.41h-.85c.08-.32.15-.69.21-1.13.06-.44.1-.84.11-1.21h-5.88v-.7h6.8Zm-5.23,7.78c.46.19,1.06.28,1.81.28s1.34-.09,1.81-.28c.46-.19.69-.47.69-.84,0-.35-.23-.62-.69-.81-.47-.18-1.07-.28-1.81-.28s-1.35.09-1.81.28c-.46.18-.69.45-.69.81,0,.37.23.65.69.84"/>
    <path class="cls-1" d="m83.74,58.27c.1.39.26.75.46,1.09.22.36.5.7.83.99.34.3.73.58,1.19.82-.11.08-.23.17-.35.29-.12.11-.23.21-.31.3-.24-.15-.48-.31-.71-.5-.23-.19-.45-.38-.65-.59-.23-.24-.44-.5-.63-.78-.19-.27-.34-.56-.46-.84-.08.27-.21.54-.38.82-.16.27-.36.54-.58.8-.22.26-.46.51-.71.74-.26.23-.51.43-.76.58-.09-.08-.21-.18-.36-.28-.15-.1-.29-.2-.43-.28.44-.25.83-.54,1.18-.86.35-.32.64-.67.86-1.05.23-.38.41-.79.54-1.24.12-.44.19-.91.19-1.41v-.71h-2.05v-.7h5.07v.7h-2.1v.84c0,.45.06.87.16,1.26m3.48,5.44v-5.25h-2.03v-.74h2.03v-2.81h.9v8.81h-.9Z"/>
    <path class="cls-1" d="m93.16,57.21c.13.28.3.54.52.76.23.25.5.46.81.64.31.18.64.32.97.42-.11.09-.21.19-.32.3-.11.11-.2.21-.26.3-.21-.09-.44-.2-.68-.33-.24-.13-.48-.29-.7-.46-.2-.15-.38-.32-.55-.49-.17-.18-.31-.37-.43-.58-.08.21-.19.41-.34.6-.15.2-.31.38-.5.55-.22.2-.46.38-.72.54-.27.16-.53.31-.8.43-.08-.08-.18-.16-.32-.27-.14-.11-.27-.2-.39-.28.39-.16.76-.35,1.11-.57.35-.22.64-.48.88-.79.19-.24.34-.5.45-.79.11-.29.16-.61.16-.96v-.23h-1.9v-.7h4.71v.7h-1.88v.26c0,.34.06.66.19.94m3.22,6.56v-2.44h-5.4v-.71h6.28v3.15h-.88Zm.88-6.05v2.49h-.88v-5.3h.88v2.08h1.33v.73h-1.33Z"/>
    <path class="cls-1" d="m103.8,59.19v.89h2.8v2.07h-5.5v.84h5.71v.64h-6.68v-2.1h5.5v-.79h-5.5v-.65h2.76v-.89h-3.94v-.67h8.82v.67h-3.97Zm-3.69-4.04h6.5v2.63h-6.5v-2.63Zm5.63.65h-4.78v1.33h4.78v-1.33Z"/>
    <path class="cls-1" d="m115.3,58.27c.11.39.26.76.47,1.09.23.36.51.7.84,1,.34.3.73.58,1.19.82-.11.08-.23.18-.35.29-.12.11-.23.21-.31.3-.24-.15-.48-.31-.71-.5-.23-.18-.45-.38-.66-.59-.23-.24-.44-.5-.63-.78-.19-.28-.34-.56-.46-.85-.08.27-.2.54-.37.82-.17.28-.37.55-.58.8-.22.26-.46.51-.71.74-.26.23-.51.42-.75.58-.1-.09-.22-.18-.36-.28-.15-.1-.29-.2-.44-.28.45-.25.83-.54,1.17-.85.34-.31.63-.66.87-1.05.23-.38.41-.79.53-1.24.12-.45.18-.92.18-1.42v-.71h-2.04v-.7h5.07v.7h-2.1v.84c0,.45.05.87.16,1.26m4.01-3.36v3.42h1.42v.74h-1.42v4.66h-.89v-8.82h.89Z"/>
    <path class="cls-1" d="m127.69,60.63v3.09h-.9v-3.09h-2.34v3.02h-.9v-3h-2.36v-.73h8.82v.71h-2.32Zm-4.6-2.16c-.61-.39-.92-.87-.92-1.44s.3-1.06.91-1.45c.61-.39,1.44-.58,2.51-.58s1.92.2,2.52.58c.61.39.91.87.91,1.46s-.3,1.04-.91,1.43c-.61.39-1.45.59-2.52.59s-1.89-.19-2.5-.58m.73-.49c.48.24,1.07.35,1.77.35s1.3-.11,1.77-.34c.47-.23.7-.54.7-.93,0-.42-.23-.74-.7-.98-.46-.24-1.05-.36-1.77-.36s-1.3.12-1.78.35c-.47.24-.71.55-.71.97s.24.71.71.94"/>
    <path class="cls-1" d="m131.98,55.96c.5-.53,1.04-.8,1.61-.8s1.13.26,1.62.8c.49.54.73,1.38.73,2.54s-.24,1.98-.72,2.53c-.48.55-1.02.82-1.63.82s-1.14-.27-1.63-.82c-.49-.54-.73-1.39-.73-2.54s.25-2.02.75-2.55m.51,4.37c.26.53.63.8,1.11.8s.84-.27,1.09-.8c.25-.53.37-1.14.37-1.83s-.12-1.27-.37-1.81c-.25-.53-.61-.79-1.09-.79s-.85.27-1.11.8c-.26.54-.39,1.14-.39,1.8s.13,1.31.39,1.83m5.34-5.43h.89v8.81h-.89v-8.81Z"/>
    <path class="cls-1" d="m140.24,59.94v-.7h2.4v-1.3c-.45-.16-.79-.35-1.03-.6-.23-.25-.35-.52-.35-.81,0-.47.29-.86.88-1.19.59-.32,1.42-.48,2.48-.48s1.93.17,2.52.5c.59.33.89.73.89,1.19,0,.29-.11.55-.34.79-.23.25-.57.44-1.02.6v1.3h2.38v.7h-8.82Zm1.85,1.12c.6-.3,1.45-.46,2.56-.46s1.97.16,2.56.47c.59.31.89.71.89,1.18s-.3.85-.89,1.17c-.59.31-1.44.47-2.57.47s-1.96-.16-2.56-.47c-.6-.32-.89-.71-.89-1.18s.3-.87.89-1.19m.76,1.93c.45.18,1.05.27,1.8.27s1.33-.09,1.78-.27c.45-.18.68-.42.68-.73s-.23-.58-.68-.76c-.45-.18-1.04-.27-1.78-.27s-1.35.09-1.8.27c-.45.18-.67.43-.67.75s.22.56.67.74m.03-5.73c.44.2,1.03.29,1.75.29s1.31-.09,1.76-.29c.46-.19.68-.43.68-.73s-.23-.56-.68-.76c-.46-.19-1.04-.29-1.76-.29s-1.3.09-1.75.28c-.44.19-.67.44-.67.75s.22.55.66.75m2.93.85c-.17.04-.36.06-.56.08-.2.01-.41.02-.62.02-.2,0-.39,0-.59-.02-.2-.02-.37-.04-.52-.07v1.12h2.29v-1.13Z"/>
    <path class="cls-1" d="m150.26,56.54h5.5v.72h-5.5v-.72Zm1.03,1.99c.44-.42,1.03-.63,1.75-.63s1.26.21,1.71.63c.45.42.67.91.67,1.48s-.23,1.04-.67,1.49c-.45.43-1.02.65-1.71.65s-1.29-.21-1.74-.64c-.45-.43-.68-.93-.68-1.49s.22-1.06.67-1.48m.64,2.5c.26.27.63.41,1.1.41s.82-.14,1.08-.41c.26-.28.39-.61.39-1.01s-.13-.72-.39-1c-.26-.27-.62-.41-1.08-.41s-.84.13-1.1.41c-.26.27-.39.61-.39,1s.13.74.39,1.01m-.35-5.92h2.86v.69h-2.86v-.69Zm5.6,8.61v-4.37h-1.58v-.74h1.58v-3.69h.89v8.81h-.89Z"/>
    <path class="cls-1" d="m165.69,59.56c-.34.06-.85.12-1.54.19-.69.06-1.31.1-1.87.12-.37,0-.85.01-1.44.02-.6,0-.91,0-.94,0v-2.72h3.49v-1.25h-3.49v-.69h4.36v2.61h-3.5v1.33h1.63c.44-.02,1.01-.06,1.7-.12.7-.06,1.23-.13,1.6-.19v.69Zm.4,4.21v-2.27h-5.39v-.72h6.3v2.99h-.91Zm.91-6.04v2.64h-.89v-5.46h.89v2.1h1.3v.72h-1.3Z"/>
  </g>
</svg>